<svg width="100" height="165" viewBox="0 0 100 165" fill="none" xmlns="http://www.w3.org/2000/svg">
<rect y="31" width="100" height="100" rx="10" fill="#6340FF"/>
<path d="M91.6431 97.6089C90.8628 108.395 86.8696 116.886 79.6636 123.083C72.5034 129.279 63.0483 132.377 51.2983 132.377C38.4468 132.377 28.3262 128.062 20.9365 119.434C13.5928 110.759 9.9209 98.8711 9.9209 83.7705V77.6431C9.9209 68.0044 11.6191 59.5132 15.0156 52.1694C18.4121 44.8257 23.2544 39.2031 29.5425 35.3018C35.8765 31.3545 43.2202 29.3809 51.5737 29.3809C63.1401 29.3809 72.4575 32.479 79.5259 38.6753C86.5942 44.8716 90.6792 53.5693 91.7808 64.7686H71.1265C70.6216 58.2969 68.8086 53.6152 65.6875 50.7236C62.6123 47.7861 57.9077 46.3174 51.5737 46.3174C44.689 46.3174 39.5254 48.7959 36.083 53.7529C32.6865 58.6641 30.9424 66.3062 30.8506 76.6792V84.2524C30.8506 95.0845 32.48 103.002 35.7388 108.005C39.0435 113.008 44.23 115.509 51.2983 115.509C57.6782 115.509 62.4287 114.063 65.5498 111.172C68.7168 108.234 70.5298 103.713 70.9888 97.6089H91.6431Z" fill="#FBF9FF"/>
</svg>
